<svg width="13" height="21" viewBox="0 0 13 21" fill="none" xmlns="http://www.w3.org/2000/svg">
<path d="M6.76015 0C7.0727 0.0558868 7.38939 0.0972844 7.6978 0.16559C10.1899 0.720318 12.1667 2.90818 12.4751 5.42102C12.6966 7.21767 12.2412 8.84253 11.2621 10.3328C10.6991 11.1898 10.0906 12.0157 9.50688 12.8581C8.57543 14.2056 7.87374 15.6566 7.55498 17.2752C7.3956 18.0908 7.31695 18.9146 7.31695 19.7446C7.31695 20.1524 7.17412 20.4877 6.82018 20.7112C6.18886 21.1086 5.34021 20.7278 5.24914 19.9868C5.19739 19.5624 5.20774 19.1319 5.17876 18.7055C5.04422 16.6936 4.37565 14.8638 3.25791 13.1976C2.68248 12.3406 2.0698 11.5085 1.48816 10.6578C0.852711 9.72637 0.364219 8.72868 0.134463 7.61095C-0.565157 4.20186 1.52956 0.927306 4.92416 0.151101C5.20774 0.0869349 5.49545 0.0496771 5.78317 0C6.10814 0 6.43518 0 6.76015 0ZM4.18729 6.25932C4.18522 7.41017 5.11873 8.3499 6.26752 8.35197C7.41423 8.35404 8.35189 7.41845 8.35396 6.26553C8.35603 5.1126 7.42665 4.17909 6.27373 4.17495C5.12701 4.17081 4.18936 5.10639 4.18729 6.25932Z" fill="#DC4B22"/>
</svg>
